<svg width="32" height="33" viewBox="0 0 32 33" fill="none" xmlns="http://www.w3.org/2000/svg">
<g clip-path="url(#clip0_2645_292)">
<g clip-path="url(#clip1_2645_292)">
<g clip-path="url(#clip2_2645_292)">
<path d="M6.61288 26.0729H28.4103C28.477 26.0729 28.5417 26.0635 28.6038 26.0486C28.6088 26.0486 28.6129 26.0494 28.6178 26.0494C29.0832 26.0494 29.4612 25.6718 29.4612 25.2062V1.37068C29.4613 0.905155 29.0832 0.527344 28.6178 0.527344H28.412H7.96166H6.61407C4.36935 0.527344 2.54348 2.35363 2.54348 4.59772C2.54348 4.62782 2.54941 4.65638 2.55233 4.68543C2.54941 6.75841 2.5237 25.8065 2.54941 28.3106C2.5478 28.3596 2.54181 28.4074 2.54181 28.4568C2.54181 30.6147 4.23141 32.3812 6.35664 32.5147C6.39928 32.5212 6.44108 32.5274 6.48532 32.5274H28.6178C29.0831 32.5274 29.4611 32.1498 29.4611 31.6841V28.5096C29.4611 28.0443 29.083 27.6663 28.6178 27.6663C28.1525 27.6663 27.7744 28.0443 27.7744 28.5096V30.8408H6.61288C5.33133 30.8408 4.28519 29.8233 4.23378 28.5545C4.23503 28.5319 4.23914 28.5105 4.23872 28.4874C4.23789 28.4504 4.23663 28.3927 4.2358 28.3161C4.30951 27.0674 5.34596 26.0729 6.61288 26.0729ZM7.18793 4.59772C7.18793 4.13219 7.56574 3.75438 8.03126 3.75438C8.49679 3.75438 8.8746 4.13219 8.8746 4.59772V21.7281C8.8746 22.1934 8.49679 22.5715 8.03126 22.5715C7.56574 22.5715 7.18793 22.1934 7.18793 21.7281V4.59772Z" fill="white"/>
</g>
</g>
</g>
<defs>
<clipPath id="clip0_2645_292">
<rect width="32" height="32" fill="white" transform="translate(0 0.527344)"/>
</clipPath>
<clipPath id="clip1_2645_292">
<rect width="32" height="32" fill="white" transform="translate(0 0.527344)"/>
</clipPath>
<clipPath id="clip2_2645_292">
<rect width="26.9231" height="32.0001" fill="white" transform="translate(2.53809 0.527344)"/>
</clipPath>
</defs>
</svg>
